HIERARCHY
ROOT SpineBase
{
  OFFSET 0.000000 0.000000 0.000000
  CHANNELS 6 Xposition Yposition Zposition Zrotation Xrotation Yrotation
  JOINT SpineMid
  {
    OFFSET 0.000000 32.667864 0.000000
    CHANNELS 3 Zrotation Xrotation Yrotation
    JOINT SpineShoulder
    {
      OFFSET -0.243030 24.302606 -0.846271
      CHANNELS 3 Zrotation Xrotation Yrotation
      JOINT Neck
      {
        OFFSET -0.176548 8.058745 -0.651605
        CHANNELS 3 Zrotation Xrotation Yrotation
        JOINT Head
        {
          OFFSET -1.788764 13.127875 -0.627830
          CHANNELS 3 Zrotation Xrotation Yrotation
          End Site
          {
            OFFSET 0 0 0
          }
        }
      }
      JOINT ShoulderLeft
      {
        OFFSET -17.208327 -4.565456 6.426714
        CHANNELS 3 Zrotation Xrotation Yrotation
        JOINT ElbowLeft
        {
          OFFSET -3.000396 -29.893856 1.631150
          CHANNELS 3 Zrotation Xrotation Yrotation
          JOINT WristLeft
          {
            OFFSET -1.908370 -23.484647 -6.259829
            CHANNELS 3 Zrotation Xrotation Yrotation
            JOINT HandLeft
            {
              OFFSET 0.218471 -5.853516 -3.218630
              CHANNELS 3 Zrotation Xrotation Yrotation
              JOINT HandTipLeft
              {
                OFFSET 2.707661 -7.842749 -1.412637
                CHANNELS 3 Zrotation Xrotation Yrotation
                End Site
                {
                  OFFSET 0 0 0
                }
              }
              JOINT ThumbLeft
              {
                OFFSET -3.208408 -2.268429 -2.684271
                CHANNELS 3 Zrotation Xrotation Yrotation
                End Site
                {
                  OFFSET 0 0 0
                }
              }
            }
          }
        }
      }
      JOINT ShoulderRight
      {
        OFFSET 13.960085 -3.002680 -7.220291
        CHANNELS 3 Zrotation Xrotation Yrotation
        JOINT ElbowRight
        {
          OFFSET 5.739901 -27.939567 -2.357934
          CHANNELS 3 Zrotation Xrotation Yrotation
          JOINT WristRight
          {
            OFFSET -1.063708 -23.341063 -6.471258
            CHANNELS 3 Zrotation Xrotation Yrotation
            JOINT HandRight
            {
              OFFSET -2.753990 -5.321657 -1.561337
              CHANNELS 3 Zrotation Xrotation Yrotation
              JOINT HandTipRight
              {
                OFFSET -1.084197 -6.808847 -2.212620
                CHANNELS 3 Zrotation Xrotation Yrotation
                End Site
                {
                  OFFSET 0 0 0
                }
              }
              JOINT ThumbRight
              {
                OFFSET 2.353870 0.236728 -3.530505
                CHANNELS 3 Zrotation Xrotation Yrotation
                End Site
                {
                  OFFSET 0 0 0
                }
              }
            }
          }
        }
      }
    }
  }
  JOINT HipLeft
  {
    OFFSET -7.741407 0.918209 -1.125733
    CHANNELS 3 Zrotation Xrotation Yrotation
    JOINT KneeLeft
    {
      OFFSET 1.615682 -39.097217 1.328713
      CHANNELS 3 Zrotation Xrotation Yrotation
      JOINT AnkleLeft
      {
        OFFSET 3.792023 -34.208461 6.069614
        CHANNELS 3 Zrotation Xrotation Yrotation
        JOINT FootLeft
        {
          OFFSET -5.301273 -3.390822 -13.477778
          CHANNELS 3 Zrotation Xrotation Yrotation
          End Site
          {
            OFFSET 0 0 0
          }
        }
      }
    }
  }
  JOINT HipRight
  {
    OFFSET 5.831440 1.668399 -6.400892
    CHANNELS 3 Zrotation Xrotation Yrotation
    JOINT KneeRight
    {
      OFFSET 7.232303 -37.158173 -4.136047
      CHANNELS 3 Zrotation Xrotation Yrotation
      JOINT AnkleRight
      {
        OFFSET 6.000768 -37.916167 6.112391
        CHANNELS 3 Zrotation Xrotation Yrotation
        JOINT FootRight
        {
          OFFSET -5.482872 -3.457277 -13.229261
          CHANNELS 3 Zrotation Xrotation Yrotation
          End Site
          {
            OFFSET 0 0 0
          }
        }
      }
    }
  }
}
MOTION
Frames: 10
Frame Time: 0.033333
81.592447 78.965878 321.354014 -0.000000 0.000000 21.238878 -0.000000 0.000000 -21.238878 -0.000000 0.000000 0.000000 -0.000000 0.000000 0.000000 0.000000 0.000000 0.000000 -0.000000 0.000000 0.000000 -0.000000 0.000000 0.000000 -0.000000 0.000000 0.000000 -0.000000 0.000000 0.000000 0.000000 0.000000 0.000000 0.000000 0.000000 0.000000 -0.000000 0.000000 0.000000 -0.000000 0.000000 0.000000 -0.000000 0.000000 0.000000 -0.000000 0.000000 0.000000 0.000000 0.000000 0.000000 0.000000 0.000000 0.000000 -0.000000 0.000000 -21.238878 -0.000000 0.000000 0.000000 -0.000000 0.000000 0.000000 0.000000 0.000000 0.000000 -0.000000 0.000000 -21.238878 -0.000000 0.000000 0.000000 -0.000000 0.000000 0.000000 0.000000 0.000000 0.000000
81.563715 78.948752 321.366516 -0.026128 -0.045320 21.255818 0.040780 0.032764 -21.255840 -0.000000 0.000000 0.000000 -0.000000 0.000000 0.000000 0.000000 0.000000 0.000000 -0.000000 0.000000 0.000000 -0.324126 -0.788158 0.148452 1.296103 3.105366 -0.623578 -2.146453 -2.529879 0.517750 0.000000 0.000000 0.000000 0.000000 0.000000 0.000000 -0.000000 0.000000 0.000000 -0.000000 0.000000 0.000000 -0.000000 0.000000 0.000000 0.869025 -1.669302 -0.003941 0.000000 0.000000 0.000000 0.000000 0.000000 0.000000 0.040780 0.032764 -21.255840 -0.000000 0.000000 0.000000 0.735290 -2.024682 0.278437 0.000000 0.000000 0.000000 0.040780 0.032764 -21.255840 -0.000000 0.000000 0.000000 -0.000000 0.000000 0.000000 0.000000 0.000000 0.000000
81.536530 78.933680 321.372967 -0.045107 -0.085661 21.282865 0.073123 0.063447 -21.282940 -0.000000 0.000000 0.000000 -0.000000 0.000000 0.000000 0.000000 0.000000 0.000000 -0.000000 0.000000 0.000000 -0.576460 -1.408242 0.261762 2.277972 5.531540 -1.126872 -3.840081 -4.645924 0.759923 0.000000 0.000000 0.000000 0.000000 0.000000 0.000000 -0.000000 0.000000 0.000000 -0.000000 0.000000 0.000000 -0.000000 0.000000 0.000000 1.592251 -2.941559 -0.008159 0.000000 0.000000 0.000000 0.000000 0.000000 0.000000 0.073123 0.063447 -21.282940 -0.000000 0.000000 0.000000 1.338726 -3.663581 0.527830 0.000000 0.000000 0.000000 0.073123 0.063447 -21.282940 -0.000000 0.000000 0.000000 -0.000000 0.000000 0.000000 0.000000 0.000000 0.000000
81.510891 78.920663 321.373368 -0.056936 -0.121024 21.320032 0.097041 0.092041 -21.320171 -0.000000 0.000000 0.000000 0.727263 -0.364895 -0.012610 0.000000 0.000000 0.000000 -0.000000 0.000000 0.000000 -0.756316 -1.855630 0.341442 2.940710 7.315213 -1.478522 -5.104479 -6.366725 0.794907 0.000000 0.000000 0.000000 0.000000 0.000000 0.000000 -0.000000 0.000000 0.000000 -0.000000 0.000000 0.000000 -0.000000 0.000000 0.000000 2.184805 -3.850407 -0.023602 0.000000 0.000000 0.000000 0.000000 0.000000 0.000000 0.097041 0.092041 -21.320171 0.794312 -0.489258 0.089957 0.969772 -4.339150 0.623019 0.000000 0.000000 0.000000 0.097041 0.092041 -21.320171 -0.000000 0.000000 0.000000 -0.000000 0.000000 0.000000 0.000000 0.000000 0.000000
81.486799 78.909699 321.367718 -0.061615 -0.151405 21.367322 0.112544 0.118549 -21.367520 -0.000000 0.000000 0.000000 0.891689 -0.459576 -0.016379 0.000000 0.000000 0.000000 -0.000000 0.000000 0.000000 -0.863184 -2.127020 0.388607 3.278937 8.485394 -1.656720 -5.953289 -7.711565 0.672106 0.000000 0.000000 0.000000 0.000000 0.000000 0.000000 -0.000000 0.000000 0.000000 -0.000000 0.000000 0.000000 -0.829386 0.225075 0.127938 3.478260 -4.652197 -0.172574 0.000000 0.000000 0.000000 0.000000 0.000000 0.000000 0.112544 0.118549 -21.367520 0.902624 -0.533366 0.105055 1.090818 -4.917290 0.721789 0.000000 0.000000 0.000000 0.112544 0.118549 -21.367520 -0.000000 0.000000 0.000000 -0.000000 0.000000 0.000000 0.000000 0.000000 0.000000
81.464253 78.900790 321.356017 -0.059142 -0.176805 21.424729 0.119639 0.142983 -21.424969 -0.000000 0.000000 0.000000 1.016728 -0.540604 -0.020210 0.000000 0.000000 0.000000 -0.000000 0.000000 0.000000 -0.896708 -2.220328 0.403920 3.287906 9.060736 -1.648438 -6.392375 -8.695768 0.424351 0.000000 0.000000 0.000000 0.000000 0.000000 0.000000 -0.000000 0.000000 0.000000 -0.000000 0.000000 0.000000 -0.943076 0.398021 0.073606 3.959666 -5.066226 -0.163876 0.000000 0.000000 0.000000 0.000000 0.000000 0.000000 0.119639 0.142983 -21.424969 0.937662 -0.521312 0.112658 1.068479 -4.974058 0.739358 0.000000 0.000000 0.000000 0.119639 0.142983 -21.424969 -0.000000 0.000000 0.000000 -0.000000 0.000000 0.000000 0.000000 0.000000 0.000000
81.445158 78.893698 321.334651 -0.049057 -0.196171 21.541219 0.117659 0.164456 -21.541472 -0.000000 0.000000 0.000000 1.136176 -0.651932 -0.027983 0.000000 0.000000 0.000000 -0.000000 0.000000 0.000000 -0.782443 -2.026639 0.360926 2.571792 8.476110 -1.233239 -6.496990 -10.725208 -0.740386 0.000000 0.000000 0.000000 0.000000 0.000000 0.000000 -0.000000 0.000000 0.000000 -0.000000 0.000000 0.000000 -0.907452 0.840298 -0.160961 4.737226 -6.214782 0.027812 0.000000 0.000000 0.000000 0.000000 0.000000 0.000000 0.117659 0.164456 -21.541472 0.868620 -0.386982 0.113994 0.771951 -4.153378 0.623410 0.000000 0.000000 0.000000 0.117659 0.164456 -21.541472 -0.000000 0.000000 0.000000 -0.000000 0.000000 0.000000 0.000000 0.000000 0.000000
81.429954 78.892212 321.308106 -0.031315 -0.209195 21.636922 0.106244 0.182908 -21.637149 -0.000000 0.000000 0.000000 1.188705 -0.699995 -0.031215 0.000000 0.000000 0.000000 -0.000000 0.000000 0.000000 -0.637403 -1.676583 0.297851 1.546060 7.069278 -0.652137 -5.981670 -10.234986 -1.246476 0.000000 0.000000 0.000000 0.000000 0.000000 0.000000 -0.000000 0.000000 0.000000 -0.000000 0.000000 0.000000 -1.000292 0.753954 -0.089536 4.925806 -4.514976 -0.397284 0.000000 0.000000 0.000000 0.000000 0.000000 0.000000 0.106244 0.182908 -21.637149 -0.000000 0.000000 0.000000 1.075775 -3.013056 0.526741 0.000000 0.000000 0.000000 0.106244 0.182908 -21.637149 -0.000000 0.000000 0.000000 -0.000000 0.000000 0.000000 0.000000 0.000000 0.000000
81.412765 78.886661 321.272945 -0.005658 -0.212859 21.670127 0.083859 0.195726 -21.670281 -0.000000 0.000000 0.000000 1.160786 -0.718551 -0.035055 0.000000 0.000000 0.000000 -0.000000 0.000000 0.000000 -0.495889 -1.308975 0.233516 1.118183 6.521722 -0.414377 -5.256689 -9.711796 -1.247401 0.000000 0.000000 0.000000 0.000000 0.000000 0.000000 -0.000000 0.000000 0.000000 -0.000000 0.000000 0.000000 -0.822171 0.754475 -0.143007 4.923089 -5.598097 -0.178975 0.000000 0.000000 0.000000 0.000000 0.000000 0.000000 0.083859 0.195726 -21.670281 -0.000000 0.000000 0.000000 0.335515 -1.010242 0.259093 0.000000 0.000000 0.000000 0.083859 0.195726 -21.670281 -0.000000 0.000000 0.000000 -0.000000 0.000000 0.000000 0.000000 0.000000 0.000000
81.398442 78.883623 321.238648 0.032437 -0.215873 21.675756 0.049590 0.212589 -21.675787 -0.000000 0.000000 0.000000 1.064360 -0.700306 -0.037955 0.000000 0.000000 0.000000 -0.000000 0.000000 0.000000 -0.282415 -0.765269 0.135793 0.410772 5.190505 -0.046448 -4.722155 -7.864208 -0.981036 0.000000 0.000000 0.000000 0.000000 0.000000 0.000000 -0.000000 0.000000 0.000000 -0.000000 0.000000 0.000000 -0.772379 0.991718 -0.278256 4.119041 -5.102503 0.044880 0.000000 0.000000 0.000000 0.000000 0.000000 0.000000 0.049590 0.212589 -21.675787 -0.000000 0.000000 0.000000 -1.061061 3.680218 -1.316730 0.000000 0.000000 0.000000 0.049590 0.212589 -21.675787 -0.000000 0.000000 0.000000 -0.000000 0.000000 0.000000 0.000000 0.000000 0.000000
